{"title":"solo_girl_ 4","uid":5075678,"size":14454428,"categoryP":"porn","categoryS":"movie_clips","magnet":"?xt=urn:btih:836fc55e178ffa46e0ae6c678109326cb9b861c1&amp;dn=solo_girl_+4&amp;tr=udp%3A%2F%2Ftracker.openbittorrent.com%3A80&amp;tr=udp%3A%2F%2Fopen.demonii.com%3A1337&amp;tr=udp%3A%2F%2Ftracker.coppersurfer.tk%3A6969&amp;tr=udp%3A%2F%2Fexodus.desync.com%3A6969","seeders":0,"leechers":0,"uploader":"sandokan89","files":-1,"time":1251816696,"description":" -------------------- SOLO GIRL 4 ---------------------\n\nVideo\nFormat                           : H.263 ---- Flash Video\nDuration                         : 2mn 13s\nBit rate                         : 815 Kbps\nWidth                            : 480 pixels\nHeight                           : 380 pixels\nDisplay aspect ratio             : 5/4\nFrame rate                       : 23.000 fps\nBits/(Pixel*Frame)               : 0.194\nStream size                      : 12.9 MiB (94%)\n\nAudio\nFormat                           : MPEG Audio\nFormat version                   : Version 2\nFormat profile                   : Layer 3\nDuration                         : 2mn 13s\nBit rate mode                    : Variable\nBit rate                         : 47.2 Kbps\nChannel(s)                       : 2 channels\nSampling rate                    : 22.05 KHz\nResolution                       : 16 bits\nStream size                      : 821 KiB (6%)","torrent":{"xt":"urn:btih:836fc55e178ffa46e0ae6c678109326cb9b861c1","amp;dn":"solo_girl_+4","amp;tr":["udp%3A%2F%2Ftracker.openbittorrent.com%3A80","udp%3A%2F%2Fopen.demonii.com%3A1337","udp%3A%2F%2Ftracker.coppersurfer.tk%3A6969","udp%3A%2F%2Fexodus.desync.com%3A6969"],"infoHash":"836fc55e178ffa46e0ae6c678109326cb9b861c1","infoHashBuffer":{"type":"Buffer","data":[131,111,197,94,23,143,250,70,224,174,108,103,129,9,50,108,185,184,97,193]},"announce":[],"urlList":[]}}